<mxfile host="Electron" modified="2022-10-03T16:09:39.350Z" agent="5.0 (Macintosh; Intel Mac OS X 10_15_7) AppleWebKit/537.36 (KHTML, like Gecko) draw.io/20.2.3 Chrome/102.0.5005.167 Electron/19.0.11 Safari/537.36" etag="HOtuoF0EajxmK6X5dEpo" compressed="false" version="20.2.3" type="device">
  <diagram id="hERVvnEAhvcodaUDOUwB" name="第1頁">
    <mxGraphModel dx="1000" dy="658" grid="1" gridSize="5" guides="1" tooltips="1" connect="1" arrows="1" fold="1" page="1" pageScale="1" pageWidth="827" pageHeight="1169" math="0" shadow="1">
      <root>
        <mxCell id="0" />
        <mxCell id="1" parent="0" />
        <object label="" type="STOP" id="zPm_YVhbSgkUuPr1N-gh-2">
          <mxCell style="shape=image;verticalLabelPosition=bottom;labelBackgroundColor=default;verticalAlign=top;aspect=fixed;imageAspect=0;image=data:image/svg+xml,PHN2ZyB4bWxuczp4bGluaz0iaHR0cDovL3d3dy53My5vcmcvMTk5OS94bGluayIgeG1sbnM9Imh0dHA6Ly93d3cudzMub3JnLzIwMDAvc3ZnIiB4bWw6c3BhY2U9InByZXNlcnZlIiBzdHlsZT0iZW5hYmxlLWJhY2tncm91bmQ6bmV3IDAgMCA1MDQuMTM5IDUwNC4xMzk7IiB2aWV3Qm94PSIwIDAgNTA0LjEzOSA1MDQuMTM5IiB5PSIwcHgiIHg9IjBweCIgaWQ9IkxheWVyXzEiIHZlcnNpb249IjEuMSI+JiN4YTs8cGF0aCBkPSJNNDk3LjE2LDE0MC42OTRMMzYzLjQyNSw2Ljk2N2MtNC40NTgtNC40NTgtMTAuNS02Ljk2My0xNi43OTQtNi45NjNIMTU3LjQ5OSYjMTA7JiM5O2MtNi4zMDksMC0xMi4zNTEsMi41MDUtMTYuODA5LDYuOTYzTDYuOTYzLDE0MC42OTRDMi41MDUsMTQ1LjE1MiwwLDE1MS4xOTQsMCwxNTcuNTAzdjE4OS4xMzNjMCw2LjMwMiwyLjUwNSwxMi4zNDMsNi45NjMsMTYuODAxJiMxMDsmIzk7bDEzMy43MzQsMTMzLjczNGM0LjQ1LDQuNDU4LDEwLjUsNi45NjMsMTYuODA5LDYuOTYzSDM0Ni42NGM2LjI5NCwwLDEyLjMzNS0yLjQ5NywxNi43OTQtNi45NTVsMTMzLjc0Mi0xMzMuNzM0JiMxMDsmIzk7YzQuNDUtNC40NTgsNi45NjMtMTAuNSw2Ljk2My0xNi44MDlWMTU3LjUwM0M1MDQuMTIzLDE1MS4xOTQsNTAxLjYxOCwxNDUuMTUyLDQ5Ny4xNiwxNDAuNjk0eiIgc3R5bGU9ImZpbGw6I0NDMDkyRTsiLz4mI3hhOzxwYXRoIGQ9Ik02Ni43NzMsODAuODkyTDYuOTYzLDE0MC42OTRDMi41MDUsMTQ1LjE1MiwwLDE1MS4xOTQsMCwxNTcuNTAzdjE4OS4xMzMmIzEwOyYjOTtjMCw2LjMwMiwyLjUwNSwxMi4zNDMsNi45NjMsMTYuODAxbDEzMy43MzQsMTMzLjczNGM0LjQ1LDQuNDU4LDEwLjUsNi45NjMsMTYuODA5LDYuOTYzSDM0Ni42NGM2LjI5NCwwLDEyLjMzNS0yLjQ5NywxNi43OTQtNi45NTUmIzEwOyYjOTtsNTkuODA5LTU5LjgwOUw2Ni43NzMsODAuODkyeiIgc3R5bGU9ImZpbGw6I0U4MTU0MjsiLz4mI3hhOzxnPiYjeGE7CTxwYXRoIGQ9Ik04Ni4zNTUsMjQ3LjE1Yy0xNS44OC02LjEzNi0yMC43MDgtMTAuNTQ3LTIwLjcwOC0xOC44NTdjMC02LjI1NCw0LjcyNi0xMy41NjQsMTguMDYyLTEzLjU2NCYjMTA7JiM5OyYjOTtjOS4xMDYsMCwxNi4wNjEsMi43NTcsMjAuMzA3LDUuMDY1YzEuMDE2LDAuNTUxLDIuMjI5LDAuNjM4LDMuMzA4LDAuMjEzYzEuMDk1LTAuNDI1LDEuOTM4LTEuMzA4LDIuMzA4LTIuNDFsNC4xNTEtMTIuMzA0JiMxMDsmIzk7JiM5O2MwLjYxNC0xLjc4OC0wLjE0Mi0zLjc1Ny0xLjc4OC00LjY4N2MtNC4xMDQtMi4zMjQtMTMuMTctNi4yMzEtMjcuNzY2LTYuMjMxYy0yNC41NjgsMC00MS43MjQsMTQuNjU5LTQxLjcyNCwzNS42NTkmIzEwOyYjOTsmIzk7YzAsMTYuNzg2LDEwLjk1NywyOC44MywzMy4zNjcsMzYuNzc3YzE2LjMwNSw2LjI2MiwxOS40OTUsMTEuOTEsMTkuNDk1LDE5LjU0M2MwLDEwLjAxMi03LjY2NCwxNS45OS0yMC40OTYsMTUuOTkmIzEwOyYjOTsmIzk7Yy04LjQ3NiwwLTE3LjgxOC0yLjYzMS0yNC45ODYtNy4wNDJjLTEuMDE2LTAuNjM4LTIuMzA4LTAuNzY0LTMuNDU4LTAuMzMxYy0xLjE0MiwwLjQzMy0yLjAxNiwxLjM3MS0yLjM3MSwyLjU0NGwtMy44MTIsMTIuNjUmIzEwOyYjOTsmIzk7Yy0wLjQ4OCwxLjY2MiwwLjE0MiwzLjQ1LDEuNTgzLDQuNDE5YzcuMTY4LDQuNzczLDIwLjMzOCw4LjExMywzMS45OTYsOC4xMTNjMzAuOTg4LDAsNDQuODQzLTE4Ljg2NSw0NC44NDMtMzcuNTY1JiMxMDsmIzk7JiM5O0MxMTguNjc0LDI2Ny4yNjgsMTA5LjAwMSwyNTUuOTAyLDg2LjM1NSwyNDcuMTV6IiBzdHlsZT0iZmlsbDojQjIwNDJFOyIvPiYjeGE7CTxwYXRoIGQ9Ik0yMjUuODE2LDE5Ni4yODFoLTg2LjQ4OWMtMi4xNjYsMC0zLjkzOCwxLjc2NC0zLjkzOCwzLjkzOHYxMi44MjRjMCwyLjE3NCwxLjc3MiwzLjkzOCwzLjkzOCwzLjkzOCYjMTA7JiM5OyYjOTtoMzEuNjAydjEwMC4wNTNjMCwyLjE3NCwxLjc1NywzLjkzOCwzLjkzOCwzLjkzOGgxNS4yNWMyLjE4MiwwLDMuOTM4LTEuNzY0LDMuOTM4LTMuOTM4VjIxNi45ODJoMzEuNzY4JiMxMDsmIzk7JiM5O2MyLjE4MiwwLDMuOTM4LTEuNzY0LDMuOTM4LTMuOTM4VjIwMC4yMkMyMjkuNzU0LDE5OC4wNDYsMjI3Ljk5OCwxOTYuMjgxLDIyNS44MTYsMTk2LjI4MXoiIHN0eWxlPSJmaWxsOiNCMjA0MkU7Ii8+JiN4YTsJPHBhdGggZD0iTTI5OC43NzIsMTk0LjM3NWMtMzQuMjY1LDAtNTguMTg3LDI2Ljg1Mi01OC4xODcsNjUuMjkyYzAsMzcuMjE4LDIzLjIxMyw2My4yMTIsNTYuNDQ2LDYzLjIxMiYjMTA7JiM5OyYjOTtjMjguOTcxLDAsNTguMTg3LTIwLjI0NCw1OC4xODctNjUuNDY1QzM1NS4yMTgsMjE5LjcwNywzMzIuNTQsMTk0LjM3NSwyOTguNzcyLDE5NC4zNzV6IE0yOTcuOTA1LDMwMi42OTgmIzEwOyYjOTsmIzk7Yy0yMi44OSwwLTMzLjMxOS0yMi40ODEtMzMuMzE5LTQzLjM3OGMwLTIyLjI4NCwxMC4zNS00NC43NjUsMzMuNDkzLTQ0Ljc2NWMyMi44OSwwLDMzLjMxOSwyMi41NzUsMzMuMzE5LDQzLjU1MiYjMTA7JiM5OyYjOTtDMzMxLjM5OCwyODAuMjk2LDMyMS4wNDgsMzAyLjY5OCwyOTcuOTA1LDMwMi42OTh6IiBzdHlsZT0iZmlsbDojQjIwNDJFOyIvPiYjeGE7CTxwYXRoIGQ9Ik00NTIuNTA2LDIwNi4xMjdjLTcuODkzLTcuMTEzLTE5LjgwMy0xMC43MTMtMzUuMzgzLTEwLjcxM2MtMTAuNjAyLDAtMjAuMjc1LDAuNzU2LTI5LjYwMSwyLjMmIzEwOyYjOTsmIzk7Yy0xLjg5LDAuMzE1LTMuMjkzLDEuOTYxLTMuMjkzLDMuODgzdjExNS40MjhjMCwyLjE3NCwxLjc3MiwzLjkzOCwzLjkzOCwzLjkzOGgxNS4wOTJjMi4xNjYsMCwzLjkzOC0xLjc2NCwzLjkzOC0zLjkzOHYtNDIuMTQ5JiMxMDsmIzk7JiM5O2MyLjY5NCwwLjI3Niw1LjQ3NCwwLjMzMSw4LjE4NCwwLjMzMWMxNi4zNjgsMCwzMC4wNTgtNC45OTQsMzguNTI2LTE0LjAxM2M2LjcyNy02LjkxNiwxMC4xMzgtMTYuMjQyLDEwLjEzOC0yNy43MDMmIzEwOyYjOTsmIzk7QzQ2NC4wNDUsMjIyLjI3NSw0NTkuOTI2LDIxMi41MzksNDUyLjUwNiwyMDYuMTI3eiBNNDE1LjczNiwyNTUuMjA4Yy0zLjM4NywwLTYuMjE1LTAuMTY1LTguNTM5LTAuNDk2di0zOC45MDQmIzEwOyYjOTsmIzk7YzIuNDAyLTAuMzE1LDUuODQ1LTAuNTUxLDEwLjI2NC0wLjU1MWMxMC43ODQsMCwyMy42MzEsMy4yODUsMjMuNjMxLDE4LjkzNkM0NDEuMDkyLDI1Mi40NzUsNDI1LjE5NiwyNTUuMjA4LDQxNS43MzYsMjU1LjIwOHoiIHN0eWxlPSJmaWxsOiNCMjA0MkU7Ii8+JiN4YTs8L2c+JiN4YTs8cGF0aCBkPSJNODYuMzU1LDI0MC41ODljLTE1Ljg4LTYuMTM2LTIwLjcwOC0xMC41NDctMjAuNzA4LTE4Ljg1N2MwLTYuMjU0LDQuNzI2LTEzLjU2NCwxOC4wNjItMTMuNTY0JiMxMDsmIzk7YzkuMTA2LDAsMTYuMDYxLDIuNzU3LDIwLjMwNyw1LjA2NWMxLjAxNiwwLjU1MSwyLjIyOSwwLjYzOCwzLjMwOCwwLjIxM2MxLjA5NS0wLjQyNSwxLjkzOC0xLjMwOCwyLjMwOC0yLjQxbDQuMTUxLTEyLjMwNCYjMTA7JiM5O2MwLjYxNC0xLjc4OC0wLjE0Mi0zLjc1Ny0xLjc4OC00LjY4N2MtNC4xMDQtMi4zMjQtMTMuMTctNi4yMzEtMjcuNzY2LTYuMjMxYy0yNC41NjgsMC00MS43MjQsMTQuNjU5LTQxLjcyNCwzNS42NTkmIzEwOyYjOTtjMCwxNi43ODYsMTAuOTU3LDI4LjgzLDMzLjM2NywzNi43NzdjMTYuMzA1LDYuMjYyLDE5LjQ5NSwxMS45MSwxOS40OTUsMTkuNTQzYzAsMTAuMDEyLTcuNjY0LDE1Ljk5LTIwLjQ5NiwxNS45OSYjMTA7JiM5O2MtOC40NzYsMC0xNy44MTgtMi42MzEtMjQuOTg2LTcuMDQyYy0xLjAxNi0wLjYzOC0yLjMwOC0wLjc2NC0zLjQ1OC0wLjMzMWMtMS4xMzQsMC40NDEtMi4wMDksMS4zODYtMi4zNjMsMi41NTJsLTMuODEyLDEyLjY1JiMxMDsmIzk7Yy0wLjQ4OCwxLjY2MiwwLjE0MiwzLjQ1LDEuNTgzLDQuNDE5YzcuMTY4LDQuNzczLDIwLjMzOCw4LjExMywzMS45OTYsOC4xMTNjMzAuOTg4LDAsNDQuODQzLTE4Ljg2NSw0NC44NDMtMzcuNTY1JiMxMDsmIzk7QzExOC42NzQsMjYwLjcwNiwxMDkuMDAxLDI0OS4zNCw4Ni4zNTUsMjQwLjU4OXoiIHN0eWxlPSJmaWxsOiNGRkZGRkY7Ii8+JiN4YTs8cGF0aCBkPSJNMjI1LjgxNiwxODkuNzJoLTg2LjQ4OWMtMi4xNjYsMC0zLjkzOCwxLjc2NC0zLjkzOCwzLjkzOHYxMi44MjRjMCwyLjE3NCwxLjc3MiwzLjkzOCwzLjkzOCwzLjkzOCYjMTA7JiM5O2gzMS42MDJ2MTAwLjA1M2MwLDIuMTc0LDEuNzU3LDMuOTM4LDMuOTM4LDMuOTM4aDE1LjI1YzIuMTgyLDAsMy45MzgtMS43NjQsMy45MzgtMy45MzhWMjEwLjQyaDMxLjc2OCYjMTA7JiM5O2MyLjE4MiwwLDMuOTM4LTEuNzY0LDMuOTM4LTMuOTM4di0xMi44MjRDMjI5Ljc1NCwxOTEuNDg0LDIyNy45OTgsMTg5LjcyLDIyNS44MTYsMTg5LjcyeiIgc3R5bGU9ImZpbGw6I0UwRTBFMDsiLz4mI3hhOzxwYXRoIGQ9Ik0xNzUuNTkyLDE4OS43MmgtMzYuMjY1Yy0yLjE2NiwwLTMuOTM4LDEuNzY0LTMuOTM4LDMuOTM4djEyLjgyNGMwLDIuMTc0LDEuNzcyLDMuOTM4LDMuOTM4LDMuOTM4JiMxMDsmIzk7aDMxLjYwMnYxMDAuMDUzYzAsMi4xNzQsMS43NTcsMy45MzgsMy45MzgsMy45MzhoMTUuMjVjMi4xODIsMCwzLjkzOC0xLjc2NCwzLjkzOC0zLjkzOFYyMTAuNDJoMi4yNDVMMTc1LjU5MiwxODkuNzJ6IiBzdHlsZT0iZmlsbDojRkZGRkZGOyIvPiYjeGE7PHBhdGggZD0iTTI5OC43NzIsMTg3LjgxM2MtMzQuMjY1LDAtNTguMTg3LDI2Ljg1Mi01OC4xODcsNjUuMjkyYzAsMzcuMjE4LDIzLjIxMyw2My4yMTIsNTYuNDQ2LDYzLjIxMiYjMTA7JiM5O2MyOC45NzEsMCw1OC4xODctMjAuMjQ0LDU4LjE4Ny02NS40NjVDMzU1LjIxOCwyMTMuMTQ2LDMzMi41NCwxODcuODEzLDI5OC43NzIsMTg3LjgxM3ogTTI5Ny45MDUsMjk2LjEzNyYjMTA7JiM5O2MtMjIuODksMC0zMy4zMTktMjIuNDgxLTMzLjMxOS00My4zNzhjMC0yMi4yODQsMTAuMzUtNDQuNzY1LDMzLjQ5My00NC43NjVjMjIuODksMCwzMy4zMTksMjIuNTc1LDMzLjMxOSw0My41NTImIzEwOyYjOTtDMzMxLjM5OCwyNzMuNzM1LDMyMS4wNDgsMjk2LjEzNywyOTcuOTA1LDI5Ni4xMzd6IiBzdHlsZT0iZmlsbDojRTBFMEUwOyIvPiYjeGE7PHBhdGggZD0iTTI0MC42NDgsMjU0Ljc3NWMwLjY5MywzNi4zMTMsMjMuNjYyLDYxLjU0Miw1Ni4zODMsNjEuNTQyYzEuNjQ2LDAsMy4zMDgtMC4wODcsNC45MzktMC4yMTMmIzEwOyYjOTtMMjQwLjY0OCwyNTQuNzc1eiIgc3R5bGU9ImZpbGw6I0ZGRkZGRjsiLz4mI3hhOzxwYXRoIGQ9Ik00NTIuNTA2LDE5OS41NjZjLTcuODkzLTcuMTEzLTE5LjgwMy0xMC43MTMtMzUuMzgzLTEwLjcxM2MtMTAuNjAyLDAtMjAuMjc1LDAuNzU2LTI5LjYwMSwyLjMmIzEwOyYjOTtjLTEuODksMC4zMTUtMy4yOTMsMS45NjEtMy4yOTMsMy44ODN2MTE1LjQyOGMwLDIuMTc0LDEuNzcyLDMuOTM4LDMuOTM4LDMuOTM4aDE1LjA5MmMyLjE2NiwwLDMuOTM4LTEuNzY0LDMuOTM4LTMuOTM4di00Mi4xNDkmIzEwOyYjOTtjMi42OTQsMC4yNzYsNS40NzQsMC4zMzEsOC4xODQsMC4zMzFjMTYuMzY4LDAsMzAuMDU4LTQuOTk0LDM4LjUyNi0xNC4wMTNjNi43MjctNi45MTYsMTAuMTM4LTE2LjI0MiwxMC4xMzgtMjcuNzAzJiMxMDsmIzk7QzQ2NC4wNDUsMjE1LjcxNCw0NTkuOTI2LDIwNS45NzgsNDUyLjUwNiwxOTkuNTY2eiBNNDE1LjczNiwyNDguNjQ3Yy0zLjM4NywwLTYuMjE1LTAuMTY1LTguNTM5LTAuNDk2di0zOC45MDQmIzEwOyYjOTtjMi40MDItMC4zMTUsNS44NDUtMC41NTEsMTAuMjY0LTAuNTUxYzEwLjc4NCwwLDIzLjYzMSwzLjI4NSwyMy42MzEsMTguOTM2QzQ0MS4wOTIsMjQ1LjkxNCw0MjUuMTk2LDI0OC42NDcsNDE1LjczNiwyNDguNjQ3eiIgc3R5bGU9ImZpbGw6I0UwRTBFMDsiLz4mI3hhOzxnPiYjeGE7PC9nPiYjeGE7PGc+JiN4YTs8L2c+JiN4YTs8Zz4mI3hhOzwvZz4mI3hhOzxnPiYjeGE7PC9nPiYjeGE7PGc+JiN4YTs8L2c+JiN4YTs8Zz4mI3hhOzwvZz4mI3hhOzxnPiYjeGE7PC9nPiYjeGE7PGc+JiN4YTs8L2c+JiN4YTs8Zz4mI3hhOzwvZz4mI3hhOzxnPiYjeGE7PC9nPiYjeGE7PGc+JiN4YTs8L2c+JiN4YTs8Zz4mI3hhOzwvZz4mI3hhOzxnPiYjeGE7PC9nPiYjeGE7PGc+JiN4YTs8L2c+JiN4YTs8Zz4mI3hhOzwvZz4mI3hhOzwvc3ZnPg==;metaEdit=1;fontFamily=Helvetica;fontStyle=0;rounded=0;" parent="1" vertex="1">
            <mxGeometry x="160" y="460" width="60" height="60" as="geometry" />
          </mxCell>
        </object>
        <mxCell id="VI03HLyb5eswxOrXBCh_-1" style="edgeStyle=orthogonalEdgeStyle;rounded=0;orthogonalLoop=1;jettySize=auto;html=1;strokeWidth=2;entryX=0.5;entryY=0;entryDx=0;entryDy=0;fontFamily=Helvetica;fontStyle=0;" parent="1" source="zPm_YVhbSgkUuPr1N-gh-8" target="8I2xyMXf2_VaB_69hzUA-1" edge="1">
          <mxGeometry relative="1" as="geometry">
            <mxPoint x="250" y="95" as="targetPoint" />
          </mxGeometry>
        </mxCell>
        <object label="" type="START" id="zPm_YVhbSgkUuPr1N-gh-8">
          <mxCell style="shape=image;verticalLabelPosition=bottom;labelBackgroundColor=default;verticalAlign=top;aspect=fixed;imageAspect=0;image=data:image/svg+xml,PHN2ZyB4bWxuczp4bGluaz0iaHR0cDovL3d3dy53My5vcmcvMTk5OS94bGluayIgeG1sbnM9Imh0dHA6Ly93d3cudzMub3JnLzIwMDAvc3ZnIiB4bWw6c3BhY2U9InByZXNlcnZlIiBzdHlsZT0iZW5hYmxlLWJhY2tncm91bmQ6bmV3IDAgMCA0OTYuMTU4IDQ5Ni4xNTg7IiB2aWV3Qm94PSIwIDAgNDk2LjE1OCA0OTYuMTU4IiB5PSIwcHgiIHg9IjBweCIgaWQ9IkxheWVyXzEiIHZlcnNpb249IjEuMSI+JiN4YTs8cGF0aCBkPSJNNDk2LjE1OCwyNDguMDg1YzAtMTM3LjAyMS0xMTEuMDctMjQ4LjA4Mi0yNDguMDc2LTI0OC4wODJDMTExLjA3LDAuMDAyLDAsMTExLjA2MiwwLDI0OC4wODUmIzEwOyYjOTtjMCwxMzcuMDAyLDExMS4wNywyNDguMDcxLDI0OC4wODMsMjQ4LjA3MUMzODUuMDg4LDQ5Ni4xNTUsNDk2LjE1OCwzODUuMDg2LDQ5Ni4xNTgsMjQ4LjA4NXoiIHN0eWxlPSJmaWxsOiMzMkJFQTY7Ii8+JiN4YTs8cGF0aCBkPSJNMzcwLjgwNSwyMzUuMjQyTDE5NS44NTYsMTI3LjgxOGMtNC43NzYtMi45MzQtMTEuMDYxLTMuMDYxLTE1Ljk1MS0wLjMyMiYjMTA7JiM5O2MtNC45NzksMi43ODUtOC4wNzEsOC4wNTktOC4wNzEsMTMuNzYydjIxNGMwLDUuNjkzLDMuMDgzLDEwLjk2Myw4LjA0NiwxMy43NTJjMi4zNTMsMS4zMiw1LjAyNCwyLjAyLDcuNzI1LDIuMDImIzEwOyYjOTtjMi44OTcsMCw1LjczNC0wLjc5Nyw4LjIwNS0yLjMwM2wxNzQuOTQ3LTEwNi41NzZjNC42NTctMi44MzYsNy41NTYtNy45ODYsNy41NjUtMTMuNDQmIzEwOyYjOTtDMzc4LjMzMiwyNDMuMjU4LDM3NS40NTIsMjM4LjA5NiwzNzAuODA1LDIzNS4yNDJ6IiBzdHlsZT0iZmlsbDojRkZGRkZGOyIvPiYjeGE7PGc+JiN4YTs8L2c+JiN4YTs8Zz4mI3hhOzwvZz4mI3hhOzxnPiYjeGE7PC9nPiYjeGE7PGc+JiN4YTs8L2c+JiN4YTs8Zz4mI3hhOzwvZz4mI3hhOzxnPiYjeGE7PC9nPiYjeGE7PGc+JiN4YTs8L2c+JiN4YTs8Zz4mI3hhOzwvZz4mI3hhOzxnPiYjeGE7PC9nPiYjeGE7PGc+JiN4YTs8L2c+JiN4YTs8Zz4mI3hhOzwvZz4mI3hhOzxnPiYjeGE7PC9nPiYjeGE7PGc+JiN4YTs8L2c+JiN4YTs8Zz4mI3hhOzwvZz4mI3hhOzxnPiYjeGE7PC9nPiYjeGE7PC9zdmc+;metaEdit=1;fontFamily=Helvetica;fontStyle=0;rounded=0;" parent="1" vertex="1">
            <mxGeometry x="160" y="20" width="60" height="60" as="geometry" />
          </mxCell>
        </object>
        <mxCell id="VI03HLyb5eswxOrXBCh_-3" style="edgeStyle=orthogonalEdgeStyle;rounded=0;orthogonalLoop=1;jettySize=auto;html=1;entryX=0.5;entryY=0;entryDx=0;entryDy=0;strokeWidth=2;fontFamily=Helvetica;fontStyle=0;" parent="1" source="VMFe27rcbGSunPFuSML7-3" target="VI03HLyb5eswxOrXBCh_-2" edge="1">
          <mxGeometry relative="1" as="geometry" />
        </mxCell>
        <object label="" type="CSV_READER" filename="@csvFileName" encoding="@csvEncoding" delimiter="@csvDelimiter" resultVarName="lines" from="@csvFrom" ignoreLastDelimiter="@csvIgnoreLastDelimiter" firstLineIsColumnNames="@csvFirstLineIsColumnNames" trimWhitespaces="@csvTrimWhitespaces" id="VMFe27rcbGSunPFuSML7-3">
          <mxCell style="shape=image;verticalLabelPosition=bottom;labelBackgroundColor=default;verticalAlign=top;aspect=fixed;imageAspect=0;image=data:image/svg+xml,PHN2ZyB4bWxuczp4bGluaz0iaHR0cDovL3d3dy53My5vcmcvMTk5OS94bGluayIgeG1sbnM9Imh0dHA6Ly93d3cudzMub3JnLzIwMDAvc3ZnIiB4bWw6c3BhY2U9InByZXNlcnZlIiBzdHlsZT0iZW5hYmxlLWJhY2tncm91bmQ6bmV3IDAgMCA1MTIgNTEyOyIgdmlld0JveD0iMCAwIDUxMiA1MTIiIHk9IjBweCIgeD0iMHB4IiBpZD0iTGF5ZXJfMSIgdmVyc2lvbj0iMS4xIj4mI3hhOzxwYXRoIGQ9Ik01MTEuMzQ0LDI3NC4yNjZDNTExLjc3LDI2OC4yMzEsNTEyLDI2Mi4xNDMsNTEyLDI1NkM1MTIsMTE0LjYxNSwzOTcuMzg1LDAsMjU2LDBTMCwxMTQuNjE1LDAsMjU2JiMxMDsmIzk7YzAsMTE3Ljc2OSw3OS41MywyMTYuOTQ5LDE4Ny44MDksMjQ2LjgwMUw1MTEuMzQ0LDI3NC4yNjZ6IiBzdHlsZT0iZmlsbDojODlDNDI5OyIvPiYjeGE7PHBhdGggZD0iTTUxMS4zNDQsMjc0LjI2NkwzMTQuOTkxLDc3LjkxM0wxMTkuMDk2LDQzNC4wODdsNjguNzE0LDY4LjcxNEMyMDkuNTIyLDUwOC43ODcsMjMyLjM4NSw1MTIsMjU2LDUxMiYjMTA7JiM5O0MzOTEuMjQzLDUxMiw1MDEuOTc2LDQwNy4xMjUsNTExLjM0NCwyNzQuMjY2eiIgc3R5bGU9ImZpbGw6IzcwOUUyMTsiLz4mI3hhOzxwb2x5Z29uIHBvaW50cz0iMjc4LjMyOCwzMzMuOTEzIDI1NS43MTEsNzcuOTEzIDExOS4wOTYsNzcuOTEzIDExOS4wOTYsMzExLjY1MiIgc3R5bGU9ImZpbGw6I0ZGRkZGRjsiLz4mI3hhOzxwb2x5Z29uIHBvaW50cz0iMzkyLjkwNCwzMTEuNjUyIDM5Mi45MDQsMTU1LjgyNiAzMzcuMjUyLDEzMy41NjUgMzE0Ljk5MSw3Ny45MTMgMjU1LjcxMSw3Ny45MTMgJiMxMDsmIzk7MjU2LjA2NywzMzMuOTEzIiBzdHlsZT0iZmlsbDojRThFNkU2OyIvPiYjeGE7PHBvbHlnb24gcG9pbnRzPSIzMTQuOTkxLDE1NS44MjYgMzE0Ljk5MSw3Ny45MTMgMzkyLjkwNCwxNTUuODI2IiBzdHlsZT0iZmlsbDojRkZGRkZGOyIvPiYjeGE7PHJlY3QgaGVpZ2h0PSIxMjIuNDM1IiB3aWR0aD0iMjczLjgwOSIgc3R5bGU9ImZpbGw6I0IzREE3MzsiIHk9IjMxMS42NTIiIHg9IjExOS4wOTYiLz4mI3hhOzxnPiYjeGE7CTxwYXRoIGQ9Ik0yMjcuNDI0LDM1NC44NjNsLTcuNzk2LDkuMjMzYy0zLjQ4LTQuMjM4LTguNjI2LTYuODg3LTEzLjMyLTYuODg3JiMxMDsmIzk7JiM5O2MtOC40LDAtMTQuNzU3LDYuNjU5LTE0Ljc1NywxNS4zNjNjMCw4Ljg1NCw2LjM1NywxNS41ODksMTQuNzU3LDE1LjU4OWM0LjQ2NiwwLDkuNjEyLTIuNDIyLDEzLjMyLTYuMjA2bDcuODcxLDguMzI0JiMxMDsmIzk7JiM5O2MtNS42NzcsNS44MjctMTQuMDc2LDkuNjg3LTIxLjg3MSw5LjY4N2MtMTUuOTY5LDAtMjcuODQ5LTExLjczLTI3Ljg0OS0yNy4yNDVjMC0xNS4yODcsMTIuMTg0LTI2Ljc5LDI4LjMwNS0yNi43OSYjMTA7JiM5OyYjOTtDMjEzLjk1NCwzNDUuOTMzLDIyMi4xMjYsMzQ5LjQxMywyMjcuNDI0LDM1NC44NjN6IiBzdHlsZT0iZmlsbDojRkZGRkZGOyIvPiYjeGE7CTxwYXRoIGQ9Ik0yNzYuNzcyLDM1MS42ODRsLTUuMDcxLDEwLjUxOWMtNS42LTMuMjU1LTEyLjYzOC01LjUyNC0xNi45NTItNS41MjQmIzEwOyYjOTsmIzk7Yy0zLjQ4MiwwLTUuODI3LDEuMjg3LTUuODI3LDMuODZjMCw5LjE1NywyOC4wMDEsMy45MzYsMjguMDAxLDIzLjA4MmMwLDEwLjU5NS05LjM4NCwxNi4xOTYtMjEuMTksMTYuMTk2JiMxMDsmIzk7JiM5O2MtOC44NTQsMC0xNy45MzYtMy4zMy0yNC4yMTgtOC40NzZsNS4yMjEtMTAuMzY4YzUuNDQ5LDQuNzY4LDEzLjYyMyw3Ljk0NywxOS4xNDgsNy45NDdjNC4yMzcsMCw2Ljg4Ni0xLjU4OSw2Ljg4Ni00LjYxNyYjMTA7JiM5OyYjOTtjMC05LjM4NC0yOC4wMDEtMy43ODMtMjguMDAxLTIyLjU1MmMwLTkuNzYzLDguNC0xNS45NjksMjEuMTE2LTE1Ljk2OUMyNjMuNTI5LDM0NS43ODEsMjcxLjMyMywzNDguMTI4LDI3Ni43NzIsMzUxLjY4NHoiIHN0eWxlPSJmaWxsOiNGRkZGRkY7Ii8+JiN4YTsJPHBhdGggZD0iTTMwMS4zNzIsMzk5LjM2MmwtMjAuNTg1LTUyLjk3NWgxNC4zNzlsMTMuNTQ3LDM4Ljk3NWwxMy41NDctMzguOTc1aDEzLjg0OGwtMjAuODExLDUyLjk3NUgzMDEuMzcyJiMxMDsmIzk7JiM5O3oiIHN0eWxlPSJmaWxsOiNGRkZGRkY7Ii8+JiN4YTs8L2c+JiN4YTs8Zz4mI3hhOzwvZz4mI3hhOzxnPiYjeGE7PC9nPiYjeGE7PGc+JiN4YTs8L2c+JiN4YTs8Zz4mI3hhOzwvZz4mI3hhOzxnPiYjeGE7PC9nPiYjeGE7PGc+JiN4YTs8L2c+JiN4YTs8Zz4mI3hhOzwvZz4mI3hhOzxnPiYjeGE7PC9nPiYjeGE7PGc+JiN4YTs8L2c+JiN4YTs8Zz4mI3hhOzwvZz4mI3hhOzxnPiYjeGE7PC9nPiYjeGE7PGc+JiN4YTs8L2c+JiN4YTs8Zz4mI3hhOzwvZz4mI3hhOzxnPiYjeGE7PC9nPiYjeGE7PGc+JiN4YTs8L2c+JiN4YTs8L3N2Zz4=;metaEdit=1;fontFamily=Helvetica;fontStyle=0;rounded=0;" parent="1" vertex="1">
            <mxGeometry x="160" y="280" width="60" height="60" as="geometry" />
          </mxCell>
        </object>
        <mxCell id="VI03HLyb5eswxOrXBCh_-4" style="edgeStyle=orthogonalEdgeStyle;rounded=0;orthogonalLoop=1;jettySize=auto;html=1;strokeWidth=2;fontFamily=Helvetica;fontStyle=0;" parent="1" source="VI03HLyb5eswxOrXBCh_-2" target="zPm_YVhbSgkUuPr1N-gh-2" edge="1">
          <mxGeometry relative="1" as="geometry" />
        </mxCell>
        <object label="print(lines)" type="PROCESS" id="VI03HLyb5eswxOrXBCh_-2">
          <mxCell style="fontSize=12;fontStyle=0;rounded=0;fontFamily=Helvetica;align=left;strokeWidth=2;arcSize=7;shadow=0;html=0;spacingLeft=5;verticalAlign=top;spacingTop=0;spacing=5;fillColor=#d5e8d4;strokeColor=#82b366;" parent="1" vertex="1">
            <mxGeometry x="60" y="380" width="260" height="40" as="geometry" />
          </mxCell>
        </object>
        <mxCell id="8I2xyMXf2_VaB_69hzUA-2" style="edgeStyle=orthogonalEdgeStyle;rounded=0;orthogonalLoop=1;jettySize=auto;html=1;strokeWidth=2;fontFamily=Helvetica;fontStyle=0;" parent="1" source="8I2xyMXf2_VaB_69hzUA-1" target="VMFe27rcbGSunPFuSML7-3" edge="1">
          <mxGeometry relative="1" as="geometry" />
        </mxCell>
        <object label="var csvDelimiter = &#39;,&#39;&#xa;var csvEncoding = &#39;utf8&#39;&#xa;var csvFileName = &#39;../tests/data/test.csv&#39;&#xa;var csvFrom = 50&#xa;var csvIgnoreLastDelimiter = true&#xa;var csvFirstLineIsColumnNames = false&#xa;var csvTrimWhitespaces = true" type="PROCESS" id="8I2xyMXf2_VaB_69hzUA-1">
          <mxCell style="fontSize=12;fontStyle=0;rounded=0;fontFamily=Helvetica;align=left;strokeWidth=2;arcSize=7;shadow=0;html=0;spacingLeft=5;verticalAlign=top;spacingTop=0;spacing=5;fillColor=#dae8fc;strokeColor=#6c8ebf;" parent="1" vertex="1">
            <mxGeometry x="60" y="120" width="260" height="125" as="geometry" />
          </mxCell>
        </object>
        <mxCell id="aWzbsSj9wB_ea8VSK-BE-3" value="CSV 步驟的屬性值從 Javascript 變數取得&lt;br&gt;&lt;ol&gt;&lt;li&gt;&lt;span style=&quot;font-weight: normal;&quot;&gt;首先在 &lt;/span&gt;PROCESS 步驟&amp;nbsp;&lt;span style=&quot;font-weight: normal;&quot;&gt;宣告變數 csvFileName，並設定檔案名稱。&lt;/span&gt;&lt;br&gt;&lt;/li&gt;&lt;li&gt;&lt;span style=&quot;font-weight: normal;&quot;&gt;在 &lt;/span&gt;CSV 步驟&lt;span style=&quot;font-weight: normal;&quot;&gt;中將&amp;nbsp;&lt;/span&gt;&lt;span style=&quot;font-weight: normal;&quot;&gt;filename 屬性設定為 @csvFileName，這表示要 CSV 步驟去找 Javascript 變數名稱 csvFileName，將他的值當做是檔案名稱。&lt;/span&gt;&lt;/li&gt;&lt;/ol&gt;&lt;span style=&quot;font-size: 14px;&quot;&gt;&lt;br&gt;&lt;/span&gt;" style="shape=note2;boundedLbl=1;whiteSpace=wrap;html=1;size=25;verticalAlign=middle;align=left;fillColor=#ffff88;horizontal=1;fontStyle=1;fontSize=14;spacingLeft=0;fontFamily=Helvetica;labelPosition=center;verticalLabelPosition=middle;spacing=10;strokeColor=#36393d;rounded=0;" vertex="1" parent="1">
          <mxGeometry x="440" y="20" width="335" height="200" as="geometry" />
        </mxCell>
        <mxCell id="aWzbsSj9wB_ea8VSK-BE-7" value="CSV 步驟&lt;span style=&quot;font-weight: normal;&quot;&gt;讀取的資料會放在 &lt;/span&gt;&lt;font style=&quot;font-weight: normal;&quot; face=&quot;-apple-system, system-ui, Segoe UI Variable, Segoe UI, system-ui, ui-sans-serif, Helvetica, Arial, sans-serif, Apple Color Emoji, Segoe UI Emoji&quot;&gt;resultVarName 所指定的變數名稱中。在此範例中，我設定&amp;nbsp;&lt;/font&gt;&lt;span style=&quot;font-family: -apple-system, system-ui, &amp;quot;Segoe UI Variable&amp;quot;, &amp;quot;Segoe UI&amp;quot;, system-ui, ui-sans-serif, Helvetica, Arial, sans-serif, &amp;quot;Apple Color Emoji&amp;quot;, &amp;quot;Segoe UI Emoji&amp;quot;;&quot;&gt;&lt;span style=&quot;font-weight: normal;&quot;&gt;resultVarName 為 lines，當 CSV 步驟讀取檔案內容之後，它會將資料放到變數 lines 裏面。&lt;br&gt;&lt;/span&gt;&lt;/span&gt;" style="shape=note2;boundedLbl=1;whiteSpace=wrap;html=1;size=25;verticalAlign=middle;align=left;fillColor=#ffff88;horizontal=1;fontStyle=1;fontSize=14;spacingLeft=0;fontFamily=Helvetica;labelPosition=center;verticalLabelPosition=middle;spacing=10;strokeColor=#36393d;rounded=0;" vertex="1" parent="1">
          <mxGeometry x="440" y="256.47" width="340" height="103.53" as="geometry" />
        </mxCell>
        <mxCell id="aWzbsSj9wB_ea8VSK-BE-8" value="" style="html=1;shadow=0;dashed=0;align=center;verticalAlign=middle;shape=mxgraph.arrows2.arrow;dy=0.6;dx=40;notch=0;fontSize=16;rotation=-180;fillColor=#fad9d5;strokeColor=#ae4132;" vertex="1" parent="1">
          <mxGeometry x="340" y="147.5" width="90" height="70" as="geometry" />
        </mxCell>
        <mxCell id="aWzbsSj9wB_ea8VSK-BE-10" value="&lt;span style=&quot;font-family: -apple-system, system-ui, &amp;quot;Segoe UI Variable&amp;quot;, &amp;quot;Segoe UI&amp;quot;, system-ui, ui-sans-serif, Helvetica, Arial, sans-serif, &amp;quot;Apple Color Emoji&amp;quot;, &amp;quot;Segoe UI Emoji&amp;quot;;&quot;&gt;PROCESS 步驟&lt;span style=&quot;font-weight: normal;&quot;&gt;可以使用 lines 變數。在範例中，我用 print 函數將 lines 變數內容顯示出來，輸出結果如下：&lt;/span&gt;&lt;br&gt;&lt;/span&gt;&lt;br&gt;&lt;div style=&quot;&quot;&gt;&lt;span style=&quot;font-weight: normal;&quot;&gt;[&lt;/span&gt;&lt;/div&gt;&lt;div style=&quot;&quot;&gt;&lt;span style=&quot;font-weight: normal;&quot;&gt;&amp;nbsp; [ &#39;Tyler&#39;, &#39;Klein&#39;, &#39;(978) 711-2630&#39; ],&lt;/span&gt;&lt;/div&gt;&lt;div style=&quot;&quot;&gt;&lt;span style=&quot;font-weight: normal;&quot;&gt;&amp;nbsp; [ &#39;Jerome&#39;, &#39;Chandler&#39;, &#39;(587) 866-9325&#39; ],&lt;/span&gt;&lt;/div&gt;&lt;div style=&quot;&quot;&gt;&lt;span style=&quot;font-weight: normal;&quot;&gt;&amp;nbsp; [ &#39;Shane&#39;, &#39;Flores&#39;, &#39;(262) 291-5730&#39; ],&lt;/span&gt;&lt;/div&gt;&lt;div style=&quot;&quot;&gt;&lt;span style=&quot;font-weight: normal;&quot;&gt;&amp;nbsp; [ &#39;Keith&#39;, &#39;Adams&#39;, &#39;(753) 953-4393&#39; ],&lt;/span&gt;&lt;/div&gt;&lt;div style=&quot;&quot;&gt;&lt;span style=&quot;font-weight: normal;&quot;&gt;&amp;nbsp;&lt;/span&gt;&lt;/div&gt;&lt;div style=&quot;&quot;&gt;&lt;span style=&quot;font-weight: normal;&quot;&gt;&amp;nbsp; ...&lt;/span&gt;&lt;/div&gt;&lt;div style=&quot;&quot;&gt;&lt;span style=&quot;font-weight: normal;&quot;&gt;&lt;br&gt;&lt;/span&gt;&lt;/div&gt;&lt;div style=&quot;&quot;&gt;&lt;span style=&quot;font-weight: normal;&quot;&gt;&amp;nbsp; [ &#39;Josephine&#39;, &#39;Erickson&#39;, &#39;(340) 243-3768&#39; ],&lt;/span&gt;&lt;/div&gt;&lt;div style=&quot;&quot;&gt;&lt;span style=&quot;font-weight: normal;&quot;&gt;&amp;nbsp; [ &#39;Landon&#39;, &#39;White&#39;, &#39;(924) 994-4641&#39; ],&lt;/span&gt;&lt;/div&gt;&lt;div style=&quot;&quot;&gt;&lt;span style=&quot;font-weight: normal;&quot;&gt;&amp;nbsp; [ &#39;Elnora&#39;, &#39;Ramsey&#39;, &#39;(512) 540-7511&#39; ],&lt;/span&gt;&lt;/div&gt;&lt;div style=&quot;&quot;&gt;&lt;span style=&quot;font-weight: normal;&quot;&gt;&amp;nbsp; [ &#39;Antonio&#39;, &#39;Baldwin&#39;, &#39;(570) 937-6258&#39; ],&lt;/span&gt;&lt;/div&gt;&lt;div style=&quot;&quot;&gt;&lt;span style=&quot;font-weight: normal;&quot;&gt;&amp;nbsp; [ &#39;Jeffery&#39;, &#39;Harrington&#39;, &#39;(486) 384-4677&#39; ],&lt;/span&gt;&lt;/div&gt;&lt;div style=&quot;&quot;&gt;&lt;span style=&quot;font-weight: normal;&quot;&gt;&amp;nbsp; [ &#39;Rose&#39;, &#39;Davidson&#39;, &#39;(327) 621-7168&#39; ],&lt;/span&gt;&lt;/div&gt;&lt;div style=&quot;&quot;&gt;&lt;span style=&quot;font-weight: normal;&quot;&gt;&amp;nbsp; [ &#39;Rose&#39;, &#39;Beck&#39;, &#39;(722) 818-7243&#39; ],&lt;/span&gt;&lt;/div&gt;&lt;div style=&quot;&quot;&gt;&lt;span style=&quot;font-weight: normal;&quot;&gt;&amp;nbsp; [ &#39;Duane&#39;, &#39;Bass&#39;, &#39;(268) 528-8874&#39; ]&lt;/span&gt;&lt;/div&gt;&lt;div style=&quot;&quot;&gt;&lt;span style=&quot;font-weight: normal;&quot;&gt;]&lt;/span&gt;&lt;/div&gt;&lt;div style=&quot;font-size: 14px;&quot;&gt;&lt;br&gt;&lt;/div&gt;" style="shape=note2;boundedLbl=1;whiteSpace=wrap;html=1;size=25;verticalAlign=middle;align=left;fillColor=#ffff88;horizontal=1;fontStyle=1;fontSize=14;spacingLeft=0;fontFamily=Helvetica;labelPosition=center;verticalLabelPosition=middle;spacing=10;strokeColor=#36393d;rounded=0;" vertex="1" parent="1">
          <mxGeometry x="440" y="380" width="340" height="420" as="geometry" />
        </mxCell>
        <mxCell id="aWzbsSj9wB_ea8VSK-BE-11" value="" style="html=1;shadow=0;dashed=0;align=center;verticalAlign=middle;shape=mxgraph.arrows2.arrow;dy=0.6;dx=40;notch=0;fontSize=16;rotation=-180;fillColor=#fad9d5;strokeColor=#ae4132;" vertex="1" parent="1">
          <mxGeometry x="340" y="365" width="90" height="70" as="geometry" />
        </mxCell>
        <mxCell id="aWzbsSj9wB_ea8VSK-BE-12" value="" style="html=1;shadow=0;dashed=0;align=center;verticalAlign=middle;shape=mxgraph.arrows2.arrow;dy=0.6;dx=40;notch=0;fontSize=16;rotation=-180;fillColor=#fad9d5;strokeColor=#ae4132;" vertex="1" parent="1">
          <mxGeometry x="340" y="275" width="90" height="70" as="geometry" />
        </mxCell>
      </root>
    </mxGraphModel>
  </diagram>
</mxfile>
